<svg width="35" height="35" viewBox="0 0 35 35" fill="none" xmlns="http://www.w3.org/2000/svg">
<g id="Standard Collection 13">
<g id="Group">
<g id="Vector">
<path d="M27.9759 9.65631C28.5646 9.49855 29.0852 9.15153 29.4573 8.66875C29.8294 8.18596 30.0323 7.59419 30.0349 6.98468V6.97743C30.0349 6.24487 29.744 5.54232 29.2259 5.02433C28.7079 4.50634 28.0053 4.21533 27.2728 4.21533H27.2657C26.6562 4.218 26.0646 4.42102 25.582 4.7931C25.0993 5.16518 24.7522 5.68569 24.5946 6.27439C24.1433 7.90892 23.1683 9.35028 21.8192 10.3775C20.47 11.4046 18.8212 11.9609 17.1255 11.9609C15.4298 11.9609 13.781 11.4046 12.4318 10.3775C11.0827 9.35028 10.1077 7.90892 9.65645 6.27439C9.49861 5.68573 9.15157 5.16531 8.66883 4.79332C8.18608 4.42131 7.59441 4.21838 6.98497 4.21579H6.97772C6.24518 4.21579 5.54261 4.5068 5.02462 5.02479C4.50663 5.54278 4.21562 6.24534 4.21562 6.97789V6.98514C4.21832 7.59458 4.42134 8.18623 4.79342 8.66894C5.16551 9.15162 5.68599 9.49857 6.27468 9.65631C7.90921 10.1075 9.35059 11.0825 10.3777 12.4317C11.4049 13.7808 11.9612 15.4297 11.9612 17.1254C11.9612 18.821 11.4049 20.4698 10.3777 21.8191C9.35059 23.1683 7.90921 24.1432 6.27468 24.5944C5.68602 24.7522 5.16558 25.0991 4.79353 25.5818C4.42148 26.0645 4.21847 26.6561 4.21578 27.2654V27.2727C4.21578 28.0053 4.50678 28.7078 5.02477 29.2259C5.54278 29.7438 6.24532 30.0348 6.97788 30.0348H6.98512C7.59458 30.0322 8.18622 29.8291 8.66892 29.457C9.1516 29.0849 9.49855 28.5644 9.6563 27.9757C10.1075 26.3412 11.0825 24.8999 12.4317 23.8727C13.7808 22.8454 15.4297 22.2893 17.1254 22.2893C18.821 22.2893 20.4698 22.8454 21.8191 23.8727C23.1681 24.8999 24.1432 26.3412 24.5944 27.9757C24.7521 28.5644 25.0991 29.085 25.5818 29.4572C26.0645 29.8292 26.6562 30.0323 27.2657 30.0349H27.273C28.0055 30.0349 28.7081 29.7438 29.226 29.2259C29.744 28.7079 30.0351 28.0053 30.0351 27.2728V27.2654C30.0325 26.6559 29.8294 26.0643 29.4573 25.5816C29.0852 25.099 28.5647 24.7521 27.976 24.5943C26.3416 24.143 24.9002 23.1681 23.873 21.8189C22.8457 20.4697 22.2896 18.8209 22.2896 17.1252C22.2896 15.4295 22.8457 13.7807 23.873 12.4315C24.9002 11.0824 26.3414 10.1076 27.9759 9.65631Z" fill="#AF51C5"/>
<path d="M27.9759 9.65631C28.5646 9.49855 29.0852 9.15153 29.4573 8.66875C29.8294 8.18596 30.0323 7.59419 30.0349 6.98468V6.97743C30.0349 6.24487 29.744 5.54232 29.2259 5.02433C28.7079 4.50634 28.0053 4.21533 27.2728 4.21533H27.2657C26.6562 4.218 26.0646 4.42102 25.582 4.7931C25.0993 5.16518 24.7522 5.68569 24.5946 6.27439C24.1433 7.90892 23.1683 9.35028 21.8192 10.3775C20.47 11.4046 18.8212 11.9609 17.1255 11.9609C15.4298 11.9609 13.781 11.4046 12.4318 10.3775C11.0827 9.35028 10.1077 7.90892 9.65645 6.27439C9.49861 5.68573 9.15157 5.16531 8.66883 4.79332C8.18608 4.42131 7.59441 4.21838 6.98497 4.21579H6.97772C6.24518 4.21579 5.54261 4.5068 5.02462 5.02479C4.50663 5.54278 4.21562 6.24534 4.21562 6.97789V6.98514C4.21832 7.59458 4.42134 8.18623 4.79342 8.66894C5.16551 9.15162 5.68599 9.49857 6.27468 9.65631C7.90921 10.1075 9.35059 11.0825 10.3777 12.4317C11.4049 13.7808 11.9612 15.4297 11.9612 17.1254C11.9612 18.821 11.4049 20.4698 10.3777 21.8191C9.35059 23.1683 7.90921 24.1432 6.27468 24.5944C5.68602 24.7522 5.16558 25.0991 4.79353 25.5818C4.42148 26.0645 4.21847 26.6561 4.21578 27.2654V27.2727C4.21578 28.0053 4.50678 28.7078 5.02477 29.2259C5.54278 29.7438 6.24532 30.0348 6.97788 30.0348H6.98512C7.59458 30.0322 8.18622 29.8291 8.66892 29.457C9.1516 29.0849 9.49855 28.5644 9.6563 27.9757C10.1075 26.3412 11.0825 24.8999 12.4317 23.8727C13.7808 22.8454 15.4297 22.2893 17.1254 22.2893C18.821 22.2893 20.4698 22.8454 21.8191 23.8727C23.1681 24.8999 24.1432 26.3412 24.5944 27.9757C24.7521 28.5644 25.0991 29.085 25.5818 29.4572C26.0645 29.8292 26.6562 30.0323 27.2657 30.0349H27.273C28.0055 30.0349 28.7081 29.7438 29.226 29.2259C29.744 28.7079 30.0351 28.0053 30.0351 27.2728V27.2654C30.0325 26.6559 29.8294 26.0643 29.4573 25.5816C29.0852 25.099 28.5647 24.7521 27.976 24.5943C26.3416 24.143 24.9002 23.1681 23.873 21.8189C22.8457 20.4697 22.2896 18.8209 22.2896 17.1252C22.2896 15.4295 22.8457 13.7807 23.873 12.4315C24.9002 11.0824 26.3414 10.1076 27.9759 9.65631Z" fill="url(#paint0_linear_21503_53)"/>
</g>
<path id="Vector_2" d="M3.61418 1.63604C3.70303 1.7244 3.81721 1.78289 3.94083 1.80335C4.06446 1.82382 4.19138 1.80525 4.30398 1.75023C5.33122 1.25414 6.48706 1.08891 7.61215 1.27732C8.73725 1.46573 9.7762 1.9985 10.5858 2.80218C10.6974 2.91463 10.8482 2.97948 11.0066 2.98311C11.165 2.98673 11.3186 2.92884 11.4352 2.8216C11.4932 2.76629 11.5395 2.69996 11.5714 2.6265C11.6034 2.55303 11.6203 2.47393 11.6213 2.39382C11.6222 2.31372 11.6071 2.23424 11.5769 2.16005C11.5466 2.08587 11.5019 2.01847 11.4452 1.96182C10.458 0.977008 9.18875 0.323851 7.81352 0.0929646C6.43831 -0.137922 5.02533 0.0649103 3.7706 0.67332C3.68518 0.71568 3.61107 0.777798 3.55445 0.854523C3.49783 0.931248 3.46032 1.02037 3.44502 1.11449C3.42973 1.20861 3.4371 1.30502 3.46651 1.39572C3.49593 1.48643 3.54656 1.56881 3.61418 1.63604Z" fill="url(#paint1_linear_21503_53)"/>
<path id="Vector_3" d="M0.675448 3.76588C0.0677804 5.01657 -0.136785 6.42501 0.0899764 7.79689C0.316737 9.16878 0.963648 10.4365 1.94146 11.4251C2.04428 11.5332 2.18275 11.6003 2.33126 11.6142C2.47976 11.628 2.62826 11.5876 2.7493 11.5005C2.81786 11.4487 2.87453 11.3827 2.91546 11.3072C2.95639 11.2316 2.98065 11.1481 2.98656 11.0624C2.9925 10.9767 2.97997 10.8907 2.94984 10.8102C2.9197 10.7297 2.87265 10.6566 2.81187 10.5959C2.00407 9.78608 1.4681 8.74514 1.27821 7.61723C1.08832 6.4893 1.25392 5.33025 1.75206 4.30064C1.80749 4.18793 1.82637 4.06073 1.80606 3.93678C1.78576 3.81281 1.72728 3.69829 1.63879 3.60915C1.5715 3.54147 1.48906 3.49081 1.39829 3.46138C1.30751 3.43196 1.21103 3.42459 1.11684 3.43991C1.02265 3.45525 0.933473 3.4928 0.856708 3.5495C0.779945 3.60618 0.717803 3.68037 0.675448 3.76588Z" fill="url(#paint2_linear_21503_53)"/>
<path id="Vector_4" d="M29.9473 32.5006C28.9197 32.9968 27.7636 33.162 26.6381 32.9732C25.5128 32.7846 24.4736 32.2514 23.6641 31.4473C23.5527 31.3354 23.4024 31.2708 23.2446 31.2673C23.0867 31.2636 22.9336 31.3212 22.8173 31.428C22.759 31.4832 22.7125 31.5496 22.6803 31.6231C22.6482 31.6966 22.6311 31.7758 22.63 31.8561C22.6289 31.9364 22.6441 32.0161 22.6743 32.0904C22.7045 32.1648 22.7493 32.2323 22.806 32.289C23.7932 33.2738 25.0625 33.9269 26.4378 34.1579C27.8129 34.3887 29.2259 34.1859 30.4807 33.5775C30.566 33.5351 30.6402 33.473 30.6969 33.3963C30.7534 33.3195 30.7909 33.2305 30.8061 33.1363C30.8214 33.0421 30.814 32.9457 30.7846 32.855C30.7551 32.7643 30.7044 32.682 30.6368 32.6148C30.548 32.5265 30.4338 32.4681 30.3102 32.4476C30.1868 32.4271 30.0598 32.4456 29.9473 32.5006Z" fill="url(#paint3_linear_21503_53)"/>
<path id="Vector_5" d="M31.428 22.8167C31.3212 22.933 31.2635 23.0861 31.2672 23.244C31.2708 23.4018 31.3354 23.5522 31.4472 23.6635C32.252 24.4737 32.7854 25.5137 32.9735 26.64C33.1619 27.7663 32.9957 28.9232 32.4983 29.9512C32.4431 30.0638 32.4244 30.1908 32.4448 30.3145C32.4653 30.4383 32.5237 30.5526 32.6122 30.6416C32.6793 30.7092 32.7616 30.7598 32.8523 30.7894C32.9429 30.8188 33.0392 30.8262 33.1334 30.8109C33.2274 30.7957 33.3166 30.7584 33.3932 30.7018C33.4699 30.6453 33.5322 30.5713 33.5746 30.4859C34.1848 29.2308 34.389 27.8169 34.1588 26.4405C33.9286 25.064 33.2753 23.7936 32.2898 22.8054C32.233 22.7485 32.1654 22.7037 32.091 22.6733C32.0165 22.643 31.9368 22.6279 31.8566 22.629C31.7761 22.63 31.6969 22.6471 31.6232 22.6795C31.5496 22.7117 31.4833 22.7583 31.428 22.8167Z" fill="url(#paint4_linear_21503_53)"/>
<path id="Vector_6" d="M32.4993 4.30131C32.9963 5.32902 33.162 6.48566 32.9735 7.61155C32.7851 8.73744 32.2517 9.77708 31.4472 10.587C31.3354 10.6983 31.2708 10.8486 31.2672 11.0064C31.2635 11.1642 31.3212 11.3173 31.428 11.4336C31.4831 11.4919 31.5496 11.5385 31.6231 11.5706C31.6966 11.6028 31.7758 11.6199 31.8561 11.621C31.9364 11.6221 32.0159 11.607 32.0903 11.5768C32.1646 11.5466 32.2323 11.5018 32.289 11.445C33.2742 10.4573 33.9276 9.18739 34.1582 7.81149C34.3889 6.4356 34.1855 5.02202 33.5761 3.76702C33.5337 3.68163 33.4715 3.60759 33.3947 3.55103C33.318 3.49446 33.2289 3.45701 33.1347 3.44178C33.0407 3.42656 32.9443 3.43397 32.8536 3.46344C32.7629 3.4929 32.6806 3.54356 32.6134 3.61121C32.5251 3.70012 32.4665 3.81436 32.446 3.93803C32.4257 4.06172 32.4443 4.18869 32.4993 4.30131Z" fill="url(#paint5_linear_21503_53)"/>
<path id="Vector_7" d="M23.6638 2.80349C24.4737 1.99893 25.5133 1.46561 26.6392 1.27713C27.7651 1.08864 28.9217 1.2543 29.9495 1.75123C30.0621 1.80639 30.1891 1.82505 30.3127 1.80463C30.4365 1.78423 30.5507 1.72575 30.6396 1.63735C30.7072 1.57017 30.7579 1.48783 30.7874 1.39715C30.8168 1.30648 30.8242 1.21008 30.809 1.11597C30.7938 1.02185 30.7564 0.932722 30.6998 0.855971C30.6433 0.779218 30.5692 0.717055 30.4838 0.674635C29.2287 0.0652726 27.8152 -0.138208 26.4393 0.0924455C25.0634 0.3231 23.7934 0.976438 22.8057 1.96175C22.749 2.01851 22.7042 2.08604 22.674 2.16038C22.6438 2.23474 22.6287 2.31438 22.6298 2.39463C22.6308 2.47489 22.6479 2.55411 22.68 2.62764C22.7122 2.70118 22.7587 2.76752 22.817 2.82276C22.9333 2.92949 23.0864 2.98708 23.2443 2.98349C23.4022 2.9799 23.5524 2.91541 23.6638 2.80349Z" fill="url(#paint6_linear_21503_53)"/>
<path id="Vector_8" d="M10.5873 31.4472C9.77738 32.2516 8.73774 32.785 7.61185 32.9735C6.48594 33.1619 5.32932 32.9963 4.3016 32.4993C4.18899 32.4442 4.06201 32.4256 3.93833 32.4459C3.81465 32.4664 3.7004 32.525 3.6115 32.6133C3.54386 32.6805 3.4932 32.7628 3.46374 32.8536C3.43427 32.9442 3.42684 33.0406 3.44207 33.1347C3.45731 33.2288 3.49476 33.3179 3.55132 33.3946C3.60788 33.4714 3.68193 33.5336 3.7673 33.576C5.02231 34.1854 6.43589 34.3888 7.81179 34.1581C9.1877 33.9275 10.4576 33.2741 11.4453 32.2889C11.5021 32.2322 11.5469 32.1645 11.5771 32.0903C11.6073 32.016 11.6223 31.9363 11.6213 31.856C11.6202 31.7757 11.6031 31.6965 11.5709 31.623C11.5387 31.5495 11.4922 31.4831 11.4339 31.4279C11.3177 31.3211 11.1645 31.2635 11.0067 31.267C10.8489 31.2707 10.6986 31.3351 10.5873 31.4472Z" fill="url(#paint7_linear_21503_53)"/>
<path id="Vector_9" d="M1.75144 29.9492C1.25444 28.9214 1.08873 27.7648 1.27719 26.6389C1.46564 25.513 1.99897 24.4734 2.80355 23.6635C2.91545 23.5521 2.97996 23.4018 2.98355 23.244C2.98714 23.0861 2.92953 22.933 2.82281 22.8167C2.76756 22.7584 2.70122 22.7119 2.62769 22.6797C2.55415 22.6476 2.47493 22.6305 2.39468 22.6294C2.31444 22.6284 2.23478 22.6435 2.16043 22.6737C2.08609 22.7039 2.01855 22.7487 1.9618 22.8054C0.976489 23.7931 0.323144 25.0631 0.0924913 26.439C-0.138162 27.8149 0.0653184 29.2284 0.674681 30.4835C0.7171 30.5689 0.779264 30.643 0.856015 30.6995C0.932768 30.7561 1.0219 30.7935 1.11601 30.8086C1.21013 30.8239 1.30653 30.8165 1.3972 30.7871C1.48787 30.7576 1.57021 30.7069 1.6374 30.6393C1.72579 30.5504 1.78425 30.4362 1.8047 30.3124C1.82514 30.1888 1.80652 30.0618 1.75144 29.9492Z" fill="url(#paint8_linear_21503_53)"/>
</g>
</g>
<defs>
<linearGradient id="paint0_linear_21503_53" x1="12.635" y1="-7.01058" x2="24.7268" y2="44.4251" gradientUnits="userSpaceOnUse">
<stop stop-color="#A00505"/>
<stop offset="1"/>
</linearGradient>
<linearGradient id="paint1_linear_21503_53" x1="2.47625" y1="5.06353" x2="15.8107" y2="4.3774" gradientUnits="userSpaceOnUse">
<stop stop-opacity="0.78"/>
<stop offset="0.96875" stop-color="#A30A00"/>
</linearGradient>
<linearGradient id="paint2_linear_21503_53" x1="-0.350812" y1="17.3246" x2="4.53019" y2="17.2912" gradientUnits="userSpaceOnUse">
<stop stop-opacity="0.78"/>
<stop offset="0.96875" stop-color="#A30A00"/>
</linearGradient>
<linearGradient id="paint3_linear_21503_53" x1="21.669" y1="36.3312" x2="35.0032" y2="35.6452" gradientUnits="userSpaceOnUse">
<stop stop-opacity="0.78"/>
<stop offset="0.96875" stop-color="#A30A00"/>
</linearGradient>
<linearGradient id="paint4_linear_21503_53" x1="30.9167" y1="36.5299" x2="35.7909" y2="36.4966" gradientUnits="userSpaceOnUse">
<stop stop-opacity="0.78"/>
<stop offset="0.96875" stop-color="#A30A00"/>
</linearGradient>
<linearGradient id="paint5_linear_21503_53" x1="30.9167" y1="17.3304" x2="35.7906" y2="17.2971" gradientUnits="userSpaceOnUse">
<stop stop-opacity="0.78"/>
<stop offset="0.96875" stop-color="#A30A00"/>
</linearGradient>
<linearGradient id="paint6_linear_21503_53" x1="21.6683" y1="5.06436" x2="35.0076" y2="4.37788" gradientUnits="userSpaceOnUse">
<stop stop-opacity="0.78"/>
<stop offset="0.96875" stop-color="#A30A00"/>
</linearGradient>
<linearGradient id="paint7_linear_21503_53" x1="2.47302" y1="36.3313" x2="15.8122" y2="35.6449" gradientUnits="userSpaceOnUse">
<stop stop-opacity="0.78"/>
<stop offset="0.96875" stop-color="#A30A00"/>
</linearGradient>
<linearGradient id="paint8_linear_21503_53" x1="-0.350308" y1="36.5257" x2="4.52368" y2="36.4924" gradientUnits="userSpaceOnUse">
<stop stop-opacity="0.78"/>
<stop offset="0.96875" stop-color="#A30A00"/>
</linearGradient>
</defs>
</svg>
